<?xml version="1.0" encoding="UTF-8" standalone="no"?>
<svg
   xmlns:dc="http://purl.org/dc/elements/1.1/"
   xmlns:cc="http://creativecommons.org/ns#"
   xmlns:rdf="http://www.w3.org/1999/02/22-rdf-syntax-ns#"
   xmlns:svg="http://www.w3.org/2000/svg"
   xmlns="http://www.w3.org/2000/svg"
   width="210mm"
   height="297mm"
   viewBox="0 0 162 243"
   version="1.1"
   id="svg8">
  <defs
     id="defs2" />
  <metadata
     id="metadata5">
    <rdf:RDF>
      <cc:Work
         rdf:about="">
        <dc:format>image/svg+xml</dc:format>
        <dc:type
           rdf:resource="http://purl.org/dc/dcmitype/StillImage" />
        <dc:title></dc:title>
      </cc:Work>
    </rdf:RDF>
  </metadata>
  <g
     transform="matrix(1.2171818,0,0,1.2171818,-34.65745,-18.578684)"
     id="text3902"
     style="font-style:normal;font-variant:normal;font-weight:normal;font-stretch:normal;font-size:25.39999962px;line-height:0;font-family:'Bauhaus 93';-inkscape-font-specification:'Bauhaus 93, Normal';font-variant-ligatures:normal;font-variant-caps:normal;font-variant-numeric:normal;font-feature-settings:normal;text-align:start;letter-spacing:0px;word-spacing:0px;writing-mode:lr-tb;text-anchor:start;fill:#000000;fill-opacity:1;stroke:none;stroke-width:0.26458332"
     aria-label="nathan dass ">
    <path
       id="path3906"
       style="font-size:25.39999962px;line-height:0;stroke-width:0.26458332"
       d="m 38.183939,85.209534 h -4.638476 v -6.98252 q 0,-1.066601 -0.880567,-1.066601 -0.868164,0 -0.868164,1.066601 v 6.98252 h -4.638476 v -6.895703 q 0,-2.418457 1.599902,-4.067969 1.599902,-1.661914 3.919141,-1.661914 2.654101,0 4.254003,1.922363 1.252637,1.500684 1.252637,4.17959 z" />
    <path
       id="path3908"
       style="font-size:25.39999962px;line-height:0;stroke-width:0.26458332"
       d="m 47.770951,80.571057 v 4.799707 q -0.570508,0.09922 -1.041797,0.09922 -2.790528,0 -4.650879,-1.835547 -1.860352,-1.835547 -1.860352,-4.601269 0,-2.691309 1.872754,-4.564063 1.885156,-1.872754 4.576465,-1.872754 3.001367,0 4.725293,1.761133 1.736328,1.748731 1.736328,4.787305 v 6.064746 h -4.638476 v -5.729883 q 0,-0.979785 -0.483692,-1.562695 -0.471289,-0.58291 -1.277441,-0.58291 -0.731739,0 -1.265039,0.5333 -0.533301,0.533301 -0.533301,1.265039 0,0.768946 0.483691,1.265039 0.483692,0.496094 1.227832,0.496094 0.607715,0 1.128614,-0.322462 z" />
    <path
       id="path3910"
       style="font-size:25.39999962px;line-height:0;stroke-width:0.26458332"
       d="m 59.962453,68.280335 v 4.737695 h 2.083594 v 4.898926 h -2.083594 q 0,1.475879 0.458887,2.033984 0.471289,0.558105 1.711524,0.558105 v 4.874122 q -0.359668,0.0124 -0.533301,0.0124 -1.575098,0 -2.976563,-0.731738 -1.389062,-0.731739 -2.232422,-1.984375 -1.066601,-1.599903 -1.066601,-4.241602 V 68.280335 Z" />
    <path
       id="path3912"
       style="font-size:25.39999962px;line-height:0;stroke-width:0.26458332"
       d="m 68.954153,68.280335 v 5.171777 q 1.178223,-0.855762 2.356446,-0.855762 1.785937,0 2.827734,1.289844 1.054199,1.289844 1.054199,3.485059 v 7.838281 h -4.638476 v -6.536035 q 0,-0.79375 -0.173633,-1.066602 -0.161231,-0.272851 -0.644922,-0.272851 -0.781348,0 -0.781348,1.153417 v 6.722071 H 64.315677 V 68.280335 Z" />
    <path
       id="path3914"
       style="font-size:25.39999962px;line-height:0;stroke-width:0.26458332"
       d="m 84.779543,80.571057 v 4.799707 q -0.570508,0.09922 -1.041797,0.09922 -2.790527,0 -4.650879,-1.835547 -1.860351,-1.835547 -1.860351,-4.601269 0,-2.691309 1.872754,-4.564063 1.885156,-1.872754 4.576465,-1.872754 3.001367,0 4.725293,1.761133 1.736328,1.748731 1.736328,4.787305 v 6.064746 h -4.638477 v -5.729883 q 0,-0.979785 -0.483691,-1.562695 -0.471289,-0.58291 -1.277442,-0.58291 -0.731738,0 -1.265039,0.5333 -0.5333,0.533301 -0.5333,1.265039 0,0.768946 0.483691,1.265039 0.483691,0.496094 1.227832,0.496094 0.607715,0 1.128613,-0.322462 z" />
    <path
       id="path3916"
       style="font-size:25.39999962px;line-height:0;stroke-width:0.26458332"
       d="m 103.86675,85.209534 h -4.638472 v -6.98252 q 0,-1.066601 -0.880566,-1.066601 -0.868164,0 -0.868164,1.066601 v 6.98252 h -4.638477 v -6.895703 q 0,-2.418457 1.599903,-4.067969 1.599902,-1.661914 3.91914,-1.661914 2.654106,0 4.254006,1.922363 1.25263,1.500684 1.25263,4.17959 z" />
    <path
       id="path3918"
       style="font-size:25.39999962px;line-height:0;stroke-width:0.26458332"
       d="m 120.5479,68.280335 h 4.63848 v 10.306347 q 0,2.840137 -1.48829,4.626074 -0.85576,1.029395 -2.18281,1.63711 -1.31465,0.607715 -2.70371,0.607715 -2.76572,0 -4.66328,-1.860352 -1.89756,-1.860352 -1.89756,-4.564062 0,-2.616895 1.88516,-4.526856 1.88515,-1.909961 4.46484,-1.909961 0.40928,0 1.24024,0.07441 v 5.109766 q -0.57051,-0.446484 -1.14102,-0.446484 -0.71934,0 -1.24023,0.5333 -0.5085,0.520899 -0.5085,1.265039 0,0.719336 0.5333,1.240235 0.5333,0.508496 1.27744,0.508496 1.78594,0 1.78594,-2.468067 z" />
    <path
       id="path3920"
       style="font-size:25.39999962px;line-height:0;stroke-width:0.26458332"
       d="m 134.48814,80.571057 v 4.799707 q -0.57051,0.09922 -1.0418,0.09922 -2.79053,0 -4.65088,-1.835547 -1.86035,-1.835547 -1.86035,-4.601269 0,-2.691309 1.87276,-4.564063 1.88515,-1.872754 4.57646,-1.872754 3.00137,0 4.72529,1.761133 1.73633,1.748731 1.73633,4.787305 v 6.064746 h -4.63848 v -5.729883 q 0,-0.979785 -0.48369,-1.562695 -0.47129,-0.58291 -1.27744,-0.58291 -0.73174,0 -1.26504,0.5333 -0.5333,0.533301 -0.5333,1.265039 0,0.768946 0.48369,1.265039 0.48369,0.496094 1.22784,0.496094 0.60771,0 1.12861,-0.322462 z" />
    <path
       id="path3922"
       style="font-size:25.39999962px;line-height:0;stroke-width:0.26458332"
       d="m 150.30112,73.01803 v 4.886523 q -0.97978,0 -1.35185,0.372071 -0.35967,0.359668 -0.45889,1.438671 -0.32246,3.584278 -2.77812,5.060157 -1.30225,0.768945 -3.6959,0.768945 h -0.64492 v -4.911328 h 0.21084 q 1.11621,0 1.5875,-0.458887 0.48369,-0.471289 0.5581,-1.637109 0.0992,-1.897559 0.34727,-2.666504 0.26045,-0.768945 1.04179,-1.525488 1.36426,-1.327051 3.78272,-1.327051 z" />
    <path
       id="path3924"
       style="font-size:25.39999962px;line-height:0;stroke-width:0.26458332"
       d="m 159.57808,73.01803 v 4.886523 q -0.97979,0 -1.35186,0.372071 -0.35967,0.359668 -0.45888,1.438671 -0.32246,3.584278 -2.77813,5.060157 -1.30224,0.768945 -3.6959,0.768945 h -0.64492 v -4.911328 h 0.21084 q 1.11621,0 1.5875,-0.458887 0.48369,-0.471289 0.55811,-1.637109 0.0992,-1.897559 0.34726,-2.666504 0.26045,-0.768945 1.0418,-1.525488 1.36426,-1.327051 3.78271,-1.327051 z" />
  </g>
</svg>
